<?xml version="1.0" encoding="iso-8859-1"?>
<!-- Generator: Adobe Illustrator 19.0.0, SVG Export Plug-In . SVG Version: 6.00 Build 0)  -->
<svg version="1.1" id="Layer_1" xmlns="http://www.w3.org/2000/svg" xmlns:xlink="http://www.w3.org/1999/xlink" x="0px" y="0px"
	 viewBox="0 0 512.003 512.003" style="enable-background:new 0 0 512.003 512.003;" xml:space="preserve">
<g>
	<g>
		<g>
			<path d="M330.669,320.001h-64c-5.888,0-10.667,4.779-10.667,10.667v64c0,5.888,4.779,10.667,10.667,10.667h64
				c5.888,0,10.667-4.779,10.667-10.667v-64C341.336,324.78,336.557,320.001,330.669,320.001z M320.003,384.001h-42.667v-42.667
				h42.667V384.001z"/>
			<path d="M505.859,150.38c-3.691-1.749-8.149-1.173-11.349,1.451l-110.507,92.096v-83.904c0-4.139-2.389-7.915-6.144-9.664
				c-3.712-1.749-8.149-1.173-11.349,1.451l-110.507,92.096v-83.904c0-4.245-2.496-8.064-6.379-9.771
				c-3.84-1.728-8.384-0.96-11.499,1.899l-90.56,83.029L127.96,9.751c-0.469-5.525-5.099-9.749-10.624-9.749h-64
				c-5.525,0-10.155,4.245-10.624,9.749L0.045,500.417c-0.277,2.965,0.725,5.931,2.752,8.128c2.027,2.197,4.885,3.456,7.872,3.456
				h490.667c5.888,0,10.667-4.779,10.667-10.624V160.044C512.003,155.905,509.613,152.129,505.859,150.38z M22.296,490.668
				L63.107,21.335h44.437l40.811,469.333H22.296z M156.803,341.335h35.2v42.667h-31.488L156.803,341.335z M490.669,490.668H169.773
				l-7.424-85.333h40.32c5.888,0,10.667-4.779,10.667-10.667v-64c0-5.888-4.779-10.667-10.667-10.667h-47.723l-5.056-58.027
				l84.779-77.717v82.411c0,4.139,2.389,7.893,6.144,9.643s8.149,1.216,11.349-1.451l110.507-92.096v83.904
				c0,4.139,2.389,7.915,6.144,9.643c3.733,1.749,8.171,1.216,11.349-1.451l110.507-92.096V490.668z"/>
			<path d="M394.669,405.335h64c5.888,0,10.667-4.779,10.667-10.667v-64c0-5.888-4.779-10.667-10.667-10.667h-64
				c-5.888,0-10.667,4.779-10.667,10.667v64C384.003,400.556,388.781,405.335,394.669,405.335z M405.336,341.335h42.667v42.667
				h-42.667V341.335z"/>
		</g>
	</g>
</g>
<g>
</g>
<g>
</g>
<g>
</g>
<g>
</g>
<g>
</g>
<g>
</g>
<g>
</g>
<g>
</g>
<g>
</g>
<g>
</g>
<g>
</g>
<g>
</g>
<g>
</g>
<g>
</g>
<g>
</g>
</svg>
